<mxfile host="65bd71144e">
    <diagram id="JDh-EEJpSPteDlZVaaP3" name="Page-1">
        <mxGraphModel dx="2637" dy="1878" grid="1" gridSize="10" guides="1" tooltips="1" connect="1" arrows="1" fold="1" page="1" pageScale="1" pageWidth="850" pageHeight="1100" math="0" shadow="0">
            <root>
                <mxCell id="0"/>
                <mxCell id="1" parent="0"/>
                <mxCell id="31" value="" style="edgeStyle=none;html=1;entryX=0.5;entryY=0;entryDx=0;entryDy=0;" parent="1" source="2" target="268" edge="1">
                    <mxGeometry relative="1" as="geometry">
                        <mxPoint x="-70" y="30" as="targetPoint"/>
                    </mxGeometry>
                </mxCell>
                <mxCell id="2" value="&lt;b&gt;START&lt;/b&gt;" style="ellipse;whiteSpace=wrap;html=1;fillColor=#FF6666;fontColor=#ffffff;strokeColor=#001DBC;" parent="1" vertex="1">
                    <mxGeometry x="-160" y="-120" width="180" height="80" as="geometry"/>
                </mxCell>
                <mxCell id="125" value="" style="edgeStyle=none;html=1;fontSize=12;" parent="1" edge="1">
                    <mxGeometry relative="1" as="geometry">
                        <mxPoint x="-70" y="130" as="sourcePoint"/>
                        <mxPoint x="-70" y="240" as="targetPoint"/>
                    </mxGeometry>
                </mxCell>
                <mxCell id="268" value="&lt;b style=&quot;color: rgb(255, 255, 255);&quot;&gt;DISPLAY THE HOME / INDEX PAGE OF BITES AND BYTES&amp;nbsp;&lt;/b&gt;" style="rounded=1;whiteSpace=wrap;html=1;fillColor=#FFC233;" parent="1" vertex="1">
                    <mxGeometry x="-195" y="40" width="250" height="104" as="geometry"/>
                </mxCell>
                <mxCell id="271" value="" style="endArrow=none;html=1;" parent="1" edge="1">
                    <mxGeometry width="50" height="50" relative="1" as="geometry">
                        <mxPoint x="-400" y="240" as="sourcePoint"/>
                        <mxPoint x="280" y="240" as="targetPoint"/>
                    </mxGeometry>
                </mxCell>
                <mxCell id="454" style="edgeStyle=none;html=1;" edge="1" parent="1" source="281">
                    <mxGeometry relative="1" as="geometry">
                        <mxPoint x="-400" y="460" as="targetPoint"/>
                    </mxGeometry>
                </mxCell>
                <mxCell id="281" value="&lt;b&gt;FETCH AND DISPLAY CATEGORIES&lt;/b&gt;" style="rounded=1;whiteSpace=wrap;html=1;fillColor=#FFC233;" parent="1" vertex="1">
                    <mxGeometry x="-490" y="310" width="180" height="70" as="geometry"/>
                </mxCell>
                <mxCell id="455" style="edgeStyle=none;html=1;" edge="1" parent="1" source="282">
                    <mxGeometry relative="1" as="geometry">
                        <mxPoint x="275" y="460" as="targetPoint"/>
                    </mxGeometry>
                </mxCell>
                <mxCell id="282" value="&lt;b&gt;FETCH AND DISPLAY FOOD ITEMS&lt;/b&gt;" style="rounded=1;whiteSpace=wrap;html=1;fillColor=#FFC233;" parent="1" vertex="1">
                    <mxGeometry x="190" y="320" width="170" height="70" as="geometry"/>
                </mxCell>
                <mxCell id="305" value="&lt;font style=&quot;font-size: 14px;&quot;&gt;&lt;b&gt;NO&lt;/b&gt;&lt;/font&gt;" style="text;strokeColor=none;align=center;fillColor=none;html=1;verticalAlign=middle;whiteSpace=wrap;rounded=0;" parent="1" vertex="1">
                    <mxGeometry x="395" y="490" width="60" height="30" as="geometry"/>
                </mxCell>
                <mxCell id="306" value="&lt;b&gt;YES&lt;/b&gt;" style="text;strokeColor=none;align=center;fillColor=none;html=1;verticalAlign=middle;whiteSpace=wrap;rounded=0;fontSize=14;" parent="1" vertex="1">
                    <mxGeometry x="300" y="610" width="60" height="30" as="geometry"/>
                </mxCell>
                <mxCell id="452" value="" style="endArrow=classic;html=1;entryX=0.5;entryY=0;entryDx=0;entryDy=0;" edge="1" parent="1" target="281">
                    <mxGeometry width="50" height="50" relative="1" as="geometry">
                        <mxPoint x="-400" y="240" as="sourcePoint"/>
                        <mxPoint x="-370" y="190" as="targetPoint"/>
                    </mxGeometry>
                </mxCell>
                <mxCell id="453" value="" style="endArrow=classic;html=1;" edge="1" parent="1">
                    <mxGeometry width="50" height="50" relative="1" as="geometry">
                        <mxPoint x="280" y="240" as="sourcePoint"/>
                        <mxPoint x="280" y="320" as="targetPoint"/>
                    </mxGeometry>
                </mxCell>
                <mxCell id="459" style="edgeStyle=none;html=1;" edge="1" parent="1" source="456">
                    <mxGeometry relative="1" as="geometry">
                        <mxPoint x="-609.9999999999998" y="525" as="targetPoint"/>
                    </mxGeometry>
                </mxCell>
                <mxCell id="463" style="edgeStyle=none;html=1;" edge="1" parent="1" source="456">
                    <mxGeometry relative="1" as="geometry">
                        <mxPoint x="-400" y="670" as="targetPoint"/>
                    </mxGeometry>
                </mxCell>
                <mxCell id="456" value="CATEGORIES AVAILABLE ?" style="rhombus;whiteSpace=wrap;html=1;fillColor=#B266FF;" vertex="1" parent="1">
                    <mxGeometry x="-510" y="460" width="220" height="130" as="geometry"/>
                </mxCell>
                <mxCell id="461" style="edgeStyle=none;html=1;" edge="1" parent="1" source="458">
                    <mxGeometry relative="1" as="geometry">
                        <mxPoint x="480" y="525" as="targetPoint"/>
                    </mxGeometry>
                </mxCell>
                <mxCell id="464" style="edgeStyle=none;html=1;" edge="1" parent="1" source="458">
                    <mxGeometry relative="1" as="geometry">
                        <mxPoint x="275" y="680" as="targetPoint"/>
                    </mxGeometry>
                </mxCell>
                <mxCell id="458" value="FOOD DETAILS AVAILABLE ?" style="rhombus;whiteSpace=wrap;html=1;fillColor=#B266FF;" vertex="1" parent="1">
                    <mxGeometry x="165" y="460" width="220" height="130" as="geometry"/>
                </mxCell>
                <mxCell id="460" value="&lt;b&gt;DISPLAY ERROR MESSAGE&lt;/b&gt;" style="rounded=1;whiteSpace=wrap;html=1;fillColor=#FFC233;" vertex="1" parent="1">
                    <mxGeometry x="-790" y="490" width="180" height="70" as="geometry"/>
                </mxCell>
                <mxCell id="462" value="&lt;b&gt;DISPLAY ERRO MESSAGE&lt;/b&gt;" style="rounded=1;whiteSpace=wrap;html=1;fillColor=#FFC233;" vertex="1" parent="1">
                    <mxGeometry x="480" y="490" width="180" height="70" as="geometry"/>
                </mxCell>
                <mxCell id="467" style="edgeStyle=none;html=1;" edge="1" parent="1" source="465">
                    <mxGeometry relative="1" as="geometry">
                        <mxPoint x="-400" y="840" as="targetPoint"/>
                    </mxGeometry>
                </mxCell>
                <mxCell id="465" value="&lt;b&gt;DISPLAY FOOD MENU&lt;/b&gt;" style="rounded=1;whiteSpace=wrap;html=1;fillColor=#FFC233;" vertex="1" parent="1">
                    <mxGeometry x="-490" y="670" width="180" height="70" as="geometry"/>
                </mxCell>
                <mxCell id="466" value="&lt;b&gt;DISPLAY FOOD DETAILS&lt;/b&gt;" style="rounded=1;whiteSpace=wrap;html=1;fillColor=#FFC233;" vertex="1" parent="1">
                    <mxGeometry x="190" y="680" width="180" height="70" as="geometry"/>
                </mxCell>
                <mxCell id="469" value="SELECT FOOD ITEM" style="shape=parallelogram;perimeter=parallelogramPerimeter;whiteSpace=wrap;html=1;fixedSize=1;fillColor=#007FFF;" vertex="1" parent="1">
                    <mxGeometry x="-530" y="840" width="240" height="100" as="geometry"/>
                </mxCell>
                <mxCell id="484" style="edgeStyle=none;html=1;" edge="1" parent="1" source="473">
                    <mxGeometry relative="1" as="geometry">
                        <mxPoint x="-55" y="1150" as="targetPoint"/>
                    </mxGeometry>
                </mxCell>
                <mxCell id="473" value="&lt;b&gt;ORDER PAGE&lt;/b&gt;" style="rounded=1;whiteSpace=wrap;html=1;fillColor=#FFC233;" vertex="1" parent="1">
                    <mxGeometry x="-150" y="1000" width="190" height="80" as="geometry"/>
                </mxCell>
                <mxCell id="477" value="" style="endArrow=none;html=1;" edge="1" parent="1" target="469">
                    <mxGeometry width="50" height="50" relative="1" as="geometry">
                        <mxPoint x="-410" y="1040" as="sourcePoint"/>
                        <mxPoint x="-410" y="950" as="targetPoint"/>
                    </mxGeometry>
                </mxCell>
                <mxCell id="478" value="" style="endArrow=none;html=1;" edge="1" parent="1">
                    <mxGeometry width="50" height="50" relative="1" as="geometry">
                        <mxPoint x="280" y="1040" as="sourcePoint"/>
                        <mxPoint x="280" y="750" as="targetPoint"/>
                    </mxGeometry>
                </mxCell>
                <mxCell id="479" value="" style="endArrow=classic;html=1;entryX=1;entryY=0.5;entryDx=0;entryDy=0;" edge="1" parent="1" target="473">
                    <mxGeometry width="50" height="50" relative="1" as="geometry">
                        <mxPoint x="280" y="1040" as="sourcePoint"/>
                        <mxPoint x="330" y="1010" as="targetPoint"/>
                    </mxGeometry>
                </mxCell>
                <mxCell id="481" value="&lt;font style=&quot;font-size: 14px;&quot;&gt;&lt;b&gt;NO&lt;/b&gt;&lt;/font&gt;" style="text;strokeColor=none;align=center;fillColor=none;html=1;verticalAlign=middle;whiteSpace=wrap;rounded=0;" vertex="1" parent="1">
                    <mxGeometry x="-580" y="490" width="60" height="30" as="geometry"/>
                </mxCell>
                <mxCell id="482" value="&lt;b&gt;YES&lt;/b&gt;" style="text;strokeColor=none;align=center;fillColor=none;html=1;verticalAlign=middle;whiteSpace=wrap;rounded=0;fontSize=14;" vertex="1" parent="1">
                    <mxGeometry x="-470" y="610" width="60" height="30" as="geometry"/>
                </mxCell>
                <mxCell id="483" value="" style="endArrow=classic;html=1;" edge="1" parent="1">
                    <mxGeometry width="50" height="50" relative="1" as="geometry">
                        <mxPoint x="-410" y="1040" as="sourcePoint"/>
                        <mxPoint x="-150" y="1040" as="targetPoint"/>
                    </mxGeometry>
                </mxCell>
                <mxCell id="486" style="edgeStyle=none;html=1;" edge="1" parent="1" source="485">
                    <mxGeometry relative="1" as="geometry">
                        <mxPoint x="-55" y="1319.9999999999995" as="targetPoint"/>
                    </mxGeometry>
                </mxCell>
                <mxCell id="485" value="FILL ORDER FORM" style="shape=parallelogram;perimeter=parallelogramPerimeter;whiteSpace=wrap;html=1;fixedSize=1;fillColor=#007FFF;" vertex="1" parent="1">
                    <mxGeometry x="-175" y="1150" width="240" height="100" as="geometry"/>
                </mxCell>
                <mxCell id="488" style="edgeStyle=none;html=1;" edge="1" parent="1" source="487">
                    <mxGeometry relative="1" as="geometry">
                        <mxPoint x="-55" y="1479.9999999999995" as="targetPoint"/>
                    </mxGeometry>
                </mxCell>
                <mxCell id="487" value="&lt;b&gt;SUBMIT ORDER FORM&lt;/b&gt;" style="rounded=1;whiteSpace=wrap;html=1;fillColor=#FFC233;" vertex="1" parent="1">
                    <mxGeometry x="-150" y="1320" width="190" height="80" as="geometry"/>
                </mxCell>
                <mxCell id="492" style="edgeStyle=none;html=1;" edge="1" parent="1" source="489">
                    <mxGeometry relative="1" as="geometry">
                        <mxPoint x="-55" y="1629.9999999999995" as="targetPoint"/>
                    </mxGeometry>
                </mxCell>
                <mxCell id="489" value="&lt;b&gt;VALIDATE AND PROCESS ORDER&lt;/b&gt;" style="rounded=1;whiteSpace=wrap;html=1;fillColor=#FFC233;" vertex="1" parent="1">
                    <mxGeometry x="-150" y="1480" width="190" height="80" as="geometry"/>
                </mxCell>
                <mxCell id="494" style="edgeStyle=none;html=1;" edge="1" parent="1" source="493">
                    <mxGeometry relative="1" as="geometry">
                        <mxPoint x="-55" y="1780" as="targetPoint"/>
                    </mxGeometry>
                </mxCell>
                <mxCell id="493" value="STORE ORDER DETAILS IN DATABASE" style="shape=cylinder;whiteSpace=wrap;html=1;boundedLbl=1;backgroundOutline=1;fillColor=#663300;" vertex="1" parent="1">
                    <mxGeometry x="-155" y="1630" width="200" height="80" as="geometry"/>
                </mxCell>
                <mxCell id="496" style="edgeStyle=none;html=1;" edge="1" parent="1" source="495">
                    <mxGeometry relative="1" as="geometry">
                        <mxPoint x="-55" y="1929.9999999999995" as="targetPoint"/>
                    </mxGeometry>
                </mxCell>
                <mxCell id="495" value="&lt;b&gt;REDIRECT TO HOME PAGE WITH SUCCESS / ERROR MESSAGE&lt;/b&gt;" style="rounded=1;whiteSpace=wrap;html=1;fillColor=#FFC233;" vertex="1" parent="1">
                    <mxGeometry x="-170" y="1780" width="230" height="80" as="geometry"/>
                </mxCell>
                <mxCell id="497" value="&lt;b&gt;END&lt;/b&gt;" style="ellipse;whiteSpace=wrap;html=1;fillColor=#FF6666;fontColor=#ffffff;strokeColor=#001DBC;" vertex="1" parent="1">
                    <mxGeometry x="-145" y="1930" width="180" height="80" as="geometry"/>
                </mxCell>
            </root>
        </mxGraphModel>
    </diagram>
</mxfile>